<?xml version="1.0" encoding="UTF-8" standalone="no"?>
<!-- Created with Inkscape (http://www.inkscape.org/) -->

<svg
   xmlns:dc="http://purl.org/dc/elements/1.1/"
   xmlns:cc="http://creativecommons.org/ns#"
   xmlns:rdf="http://www.w3.org/1999/02/22-rdf-syntax-ns#"
   xmlns:svg="http://www.w3.org/2000/svg"
   xmlns="http://www.w3.org/2000/svg"
   xmlns:sodipodi="http://sodipodi.sourceforge.net/DTD/sodipodi-0.dtd"
   xmlns:inkscape="http://www.inkscape.org/namespaces/inkscape"
   version="1.1"
   width="175"
   height="62.040375"
   id="svg3004"
   xml:space="preserve"
   inkscape:version="0.48.4 r9939"
   preserveAspectRatio="xMinYMin meet"
   viewBox="0 0 175 60"
   sodipodi:docname="arts-logo.svg"><sodipodi:namedview
     pagecolor="#ffffff"
     bordercolor="#666666"
     borderopacity="1"
     objecttolerance="10"
     gridtolerance="10"
     guidetolerance="10"
     inkscape:pageopacity="0"
     inkscape:pageshadow="2"
     inkscape:window-width="640"
     inkscape:window-height="480"
     id="namedview3090"
     showgrid="false"
     inkscape:zoom="0.77611219"
     inkscape:cx="244.7851"
     inkscape:cy="-18.350357"
     inkscape:window-x="0"
     inkscape:window-y="0"
     inkscape:window-maximized="0"
     inkscape:current-layer="svg3004"
     fit-margin-top="0"
     fit-margin-left="0"
     fit-margin-right="0"
     fit-margin-bottom="0" /><metadata
     id="metadata3010"><rdf:RDF><cc:Work
         rdf:about=""><dc:format>image/svg+xml</dc:format><dc:type
           rdf:resource="http://purl.org/dc/dcmitype/StillImage" /><dc:title /></cc:Work></rdf:RDF></metadata><defs
     id="defs3008"><clipPath
       id="clipPath3022"><path
         d="m 0,76.535 340.157,0 L 340.157,0 0,0 0,76.535 z"
         id="path3024"
         inkscape:connector-curvature="0" /></clipPath></defs><g
     transform="matrix(1.1479402,0,0,-1.1479402,-16.794824,72.515842)"
     id="g3012"><g
       transform="translate(55.9985,33.7739)"
       id="g3014"><path
         d="M 0,0 -2.01,-8.643 -4.121,0 -7.025,0 -9.17,-8.546 -11.121,0 l -3.173,0 3.511,-13.497 3.123,0 2.059,8.538 2.095,-8.538 3.068,0 0.031,0.115 L 3.127,0 0,0 z m -29.099,-8.623 -7.343,8.625 -3.112,0 0,-13.502 3.031,0 0,8.606 7.323,-8.606 3.131,0 0,13.502 -3.03,0 0,-8.625 z"
         id="path3016"
         style="fill:#ffffff;fill-opacity:1;fill-rule:nonzero;stroke:none"
         inkscape:connector-curvature="0" /></g><g
       id="g3018"><g
         clip-path="url(#clipPath3022)"
         id="g3020"><g
           transform="translate(16.1206,16.1338)"
           id="g3026"><path
             d="m 0,0 0,0.012 c 0,1.17 0.896,2.161 2.154,2.161 0.729,0 1.177,-0.204 1.607,-0.568 L 3.295,1.051 C 2.972,1.325 2.656,1.497 2.126,1.497 1.355,1.497 0.771,0.826 0.771,0.023 l 0,-0.011 c 0,-0.859 0.565,-1.491 1.42,-1.491 0.393,0 0.753,0.125 1.008,0.317 l 0,0.78 -1.068,0 0,0.64 1.78,0 0,-1.754 C 3.498,-1.849 2.908,-2.147 2.167,-2.147 0.861,-2.147 0,-1.216 0,0"
             id="path3028"
             style="fill:#ffffff;fill-opacity:1;fill-rule:nonzero;stroke:none"
             inkscape:connector-curvature="0" /></g><g
           transform="translate(24.0742,16.1338)"
           id="g3030"><path
             d="m 0,0 0,0.012 c 0,0.814 -0.592,1.485 -1.422,1.485 -0.828,0 -1.408,-0.66 -1.408,-1.474 l 0,-0.011 c 0,-0.813 0.591,-1.487 1.421,-1.487 C -0.58,-1.475 0,-0.81 0,0 m -3.6,0 0,0.012 c 0,1.176 0.909,2.161 2.191,2.161 1.284,0 2.178,-0.974 2.178,-2.15 l 0,-0.011 c 0,-1.174 -0.907,-2.159 -2.191,-2.159 -1.283,0 -2.178,0.97 -2.178,2.147"
             id="path3032"
             style="fill:#ffffff;fill-opacity:1;fill-rule:nonzero;stroke:none"
             inkscape:connector-curvature="0" /></g><g
           transform="translate(24.791,18.2363)"
           id="g3034"><path
             d="M 0,0 0.812,0 2.07,-3.211 3.325,0 4.118,0 2.381,-4.211 1.736,-4.211 0,0 z"
             id="path3036"
             style="fill:#ffffff;fill-opacity:1;fill-rule:nonzero;stroke:none"
             inkscape:connector-curvature="0" /></g><g
           transform="translate(29.4043,18.2363)"
           id="g3038"><path
             d="m 0,0 3.098,0 0,-0.658 -2.364,0 0,-1.087 2.096,0 0,-0.656 -2.096,0 0,-1.122 2.394,0 0,-0.655 L 0,-4.178 0,0 z"
             id="path3040"
             style="fill:#ffffff;fill-opacity:1;fill-rule:nonzero;stroke:none"
             inkscape:connector-curvature="0" /></g><g
           transform="translate(35.0537,16.165)"
           id="g3042"><path
             d="m 0,0 c 0.525,0 0.859,0.274 0.859,0.697 l 0,0.011 c 0,0.449 -0.322,0.694 -0.865,0.694 l -1.069,0 L -1.075,0 0,0 z m -1.809,2.071 1.862,0 C 0.578,2.071 0.991,1.915 1.259,1.653 1.481,1.428 1.606,1.115 1.606,0.752 l 0,-0.013 c 0,-0.686 -0.413,-1.098 -0.998,-1.264 l 1.129,-1.581 -0.866,0 -1.026,1.455 -0.92,0 0,-1.455 -0.734,0 0,4.177 z"
             id="path3044"
             style="fill:#ffffff;fill-opacity:1;fill-rule:nonzero;stroke:none"
             inkscape:connector-curvature="0" /></g><g
           transform="translate(37.3076,18.2363)"
           id="g3046"><path
             d="m 0,0 0.678,0 2.239,-2.89 0,2.89 0.723,0 0,-4.178 -0.616,0 -2.303,2.972 0,-2.972 L 0,-4.178 0,0 z"
             id="path3048"
             style="fill:#ffffff;fill-opacity:1;fill-rule:nonzero;stroke:none"
             inkscape:connector-curvature="0" /></g><g
           transform="translate(41.6929,18.2363)"
           id="g3050"><path
             d="M 0,0 0.782,0 2.053,-1.979 3.325,0 l 0.782,0 0,-4.178 -0.735,0 0,2.994 -1.319,-1.969 -0.024,0 -1.305,1.96 0,-2.985 L 0,-4.178 0,0 z"
             id="path3052"
             style="fill:#ffffff;fill-opacity:1;fill-rule:nonzero;stroke:none"
             inkscape:connector-curvature="0" /></g><g
           transform="translate(46.5005,18.2363)"
           id="g3054"><path
             d="m 0,0 3.097,0 0,-0.658 -2.364,0 0,-1.087 2.096,0 0,-0.656 -2.096,0 0,-1.122 2.395,0 0,-0.655 L 0,-4.178 0,0 z"
             id="path3056"
             style="fill:#ffffff;fill-opacity:1;fill-rule:nonzero;stroke:none"
             inkscape:connector-curvature="0" /></g><g
           transform="translate(50.3501,18.2363)"
           id="g3058"><path
             d="m 0,0 0.681,0 2.238,-2.89 0,2.89 0.723,0 0,-4.178 -0.615,0 -2.303,2.972 0,-2.972 L 0,-4.178 0,0 z"
             id="path3060"
             style="fill:#ffffff;fill-opacity:1;fill-rule:nonzero;stroke:none"
             inkscape:connector-curvature="0" /></g><g
           transform="translate(55.8989,17.5557)"
           id="g3062"><path
             d="m 0,0 -1.326,0 0,0.681 3.391,0 0,-0.681 -1.325,0 0,-3.497 -0.74,0 L 0,0 z"
             id="path3064"
             style="fill:#ffffff;fill-opacity:1;fill-rule:nonzero;stroke:none"
             inkscape:connector-curvature="0" /></g><g
           transform="translate(30.7646,22.1543)"
           id="g3066"><path
             d="m 0,0 1.782,2.136 c 1.236,-1.02 2.529,-1.667 4.095,-1.667 1.235,0 1.979,0.49 1.979,1.295 l 0,0.038 C 7.856,2.566 7.387,2.96 5.094,3.545 2.331,4.251 0.549,5.017 0.549,7.74 l 0,0.039 c 0,2.487 1.997,4.133 4.801,4.133 1.997,0 3.701,-0.627 5.093,-1.743 L 8.875,7.896 C 7.661,8.739 6.466,9.248 5.308,9.248 4.154,9.248 3.547,8.719 3.547,8.053 l 0,-0.04 c 0,-0.901 0.586,-1.195 2.958,-1.802 2.783,-0.725 4.349,-1.725 4.349,-4.114 l 0,-0.039 c 0,-2.723 -2.076,-4.252 -5.035,-4.252 C 3.742,-2.194 1.646,-1.468 0,0"
             id="path3068"
             style="fill:#ffffff;fill-opacity:1;fill-rule:nonzero;stroke:none"
             inkscape:connector-curvature="0" /></g><g
           transform="translate(23.6611,59.3955)"
           id="g3070"><path
             d="m 0,0 c -0.284,-0.009 -0.452,-0.174 -0.514,-0.506 0,0 -0.068,-0.491 -0.145,-1.328 -0.07,-0.764 -0.155,-1.978 -0.155,-3.42 0,-3.25 0.423,-7.866 2.447,-11.406 1.551,-2.7 3.744,-4.22 6.19,-4.299 -0.953,0.728 -2.088,1.938 -2.692,3.819 -0.569,1.785 -0.859,3.895 -0.859,6.271 0,3.282 0.551,6.097 0.72,6.881 0.004,0.02 0.007,0.033 0.008,0.038 0.098,0.458 0.362,0.822 0.715,1.007 -2.494,1.601 -4.641,2.542 -5.056,2.718 -0.247,0.115 -0.383,0.164 -0.383,0.164 L 0.272,-0.06 0.269,-0.059 C 0.177,-0.021 0.088,-0.001 0,0"
             id="path3072"
             style="fill:#ffffff;fill-opacity:1;fill-rule:nonzero;stroke:none"
             inkscape:connector-curvature="0" /></g><g
           transform="translate(44.9126,55.6006)"
           id="g3074"><path
             d="m 0,0 c -0.063,0 -0.132,-0.03 -0.21,-0.089 -0.001,-0.002 -0.079,-0.06 -0.219,-0.182 -0.142,-0.114 -0.344,-0.288 -0.625,-0.537 -0.374,-0.333 -1.135,-1.038 -2.024,-2.013 -1.406,-1.567 -3.27,-4.035 -4.157,-6.894 -0.51,-1.667 -0.765,-3.112 -0.756,-4.292 -0.01,-0.883 0.131,-1.629 0.416,-2.221 0.271,-0.578 0.684,-0.989 1.264,-1.256 0.246,-0.108 0.555,-0.164 0.923,-0.164 l 0.018,0 c 1.705,0 4.553,1.424 5.535,4.589 0.527,1.706 0.795,3.72 0.795,5.985 0,2.812 -0.407,5.263 -0.584,6.186 -0.068,0.34 -0.107,0.526 -0.107,0.526 C 0.228,-0.201 0.146,0 0,0"
             id="path3076"
             style="fill:#ffffff;fill-opacity:1;fill-rule:nonzero;stroke:none"
             inkscape:connector-curvature="0" /></g><g
           transform="translate(29.9004,55.6006)"
           id="g3078"><path
             d="m 0,0 c -0.15,0 -0.24,-0.199 -0.29,-0.368 -0.006,-0.031 -0.043,-0.212 -0.106,-0.521 -0.047,-0.236 -0.141,-0.738 -0.243,-1.449 -0.16,-1.113 -0.351,-2.835 -0.351,-4.736 0,-2.301 0.271,-4.31 0.806,-5.973 1.002,-3.174 3.92,-4.601 5.672,-4.601 l 0.017,0 c 0.37,0 0.693,0.06 0.964,0.176 0.143,0.058 0.281,0.132 0.437,0.237 -0.129,0.176 -0.243,0.369 -0.349,0.587 -0.341,0.709 -0.511,1.572 -0.522,2.639 0.01,1.317 0.285,2.856 0.819,4.579 0.046,0.158 0.101,0.319 0.154,0.474 0.023,0.062 0.044,0.124 0.065,0.186 -1.861,4.625 -6.137,8.112 -6.62,8.496 C 0.299,-0.149 0.221,-0.091 0.221,-0.091 0.136,-0.032 0.06,0 0,0"
             id="path3080"
             style="fill:#ffffff;fill-opacity:1;fill-rule:nonzero;stroke:none"
             inkscape:connector-curvature="0" /></g><g
           transform="translate(37.3916,63.1704)"
           id="g3082"><path
             d="m 0,0 c -0.103,0 -0.21,-0.082 -0.318,-0.243 -0.001,-0.003 -0.088,-0.129 -0.23,-0.366 -0.215,-0.356 -0.419,-0.704 -0.624,-1.063 -0.462,-0.818 -1.162,-2.139 -1.882,-3.783 -0.494,-1.121 -0.945,-2.287 -1.339,-3.468 1.385,-1.385 3.244,-3.544 4.48,-6.166 0.955,2.053 2.406,4.1 4.317,6.086 C 3.1,-5.047 1.27,-1.818 0.539,-0.609 0.384,-0.367 0.305,-0.239 0.305,-0.239 0.158,-0.018 0.035,0 0,0"
             id="path3084"
             style="fill:#ffffff;fill-opacity:1;fill-rule:nonzero;stroke:none"
             inkscape:connector-curvature="0" /></g><g
           transform="translate(51.1025,59.3955)"
           id="g3086"><path
             d="M 0,0 C -0.055,-0.001 -0.146,-0.011 -0.258,-0.059 L -0.262,-0.06 -0.265,-0.061 c -0.001,0 -0.135,-0.049 -0.38,-0.162 C -0.884,-0.32 -1.2,-0.468 -1.601,-0.657 L -1.74,-0.721 c -1.232,-0.596 -2.431,-1.263 -3.565,-1.977 -0.129,-0.074 -0.258,-0.156 -0.385,-0.24 0.35,-0.177 0.62,-0.546 0.719,-1.006 0.003,-0.011 0.005,-0.025 0.01,-0.045 0.166,-0.784 0.706,-3.598 0.706,-6.88 0,-2.363 -0.281,-4.473 -0.836,-6.27 -0.597,-1.889 -1.703,-3.095 -2.634,-3.818 2.411,0.112 4.57,1.63 6.103,4.297 2.023,3.54 2.447,8.156 2.447,11.406 0,1.151 -0.053,2.304 -0.156,3.43 C 0.592,-0.996 0.524,-0.505 0.523,-0.499 0.463,-0.174 0.291,-0.009 0,0"
             id="path3088"
             style="fill:#ffffff;fill-opacity:1;fill-rule:nonzero;stroke:none"
             inkscape:connector-curvature="0" /></g><g
           transform="translate(44.4141,62.1426)"
           id="g3090"><path
             d="m 0,0 c -0.031,0 -0.064,-0.003 -0.096,-0.008 l -0.004,0 -0.003,0 c -0.074,-0.007 -0.151,-0.039 -0.229,-0.094 l -0.004,-0.002 -0.003,-0.003 c -0.006,-0.002 -0.535,-0.327 -1.351,-0.914 -0.455,-0.324 -1.172,-0.86 -2.053,-1.588 0.639,-1.329 1.211,-2.684 1.703,-4.034 1.053,0.829 2.204,1.617 3.513,2.407 C 1.101,-2.36 0.678,-0.965 0.511,-0.446 0.505,-0.428 0.5,-0.416 0.498,-0.406 0.395,-0.136 0.227,0 0,0"
             id="path3092"
             style="fill:#ffffff;fill-opacity:1;fill-rule:nonzero;stroke:none"
             inkscape:connector-curvature="0" /></g><g
           transform="translate(30.3599,62.1426)"
           id="g3094"><path
             d="m 0,0 c -0.228,0 -0.396,-0.136 -0.498,-0.406 -0.003,-0.01 -0.006,-0.022 -0.014,-0.04 -0.167,-0.519 -0.59,-1.914 -0.96,-3.79 1.308,-0.79 2.46,-1.578 3.51,-2.406 0.468,1.31 1.041,2.665 1.704,4.033 -0.694,0.576 -1.385,1.111 -2.051,1.588 -0.817,0.587 -1.347,0.912 -1.352,0.914 l -0.003,0.003 -0.004,0.002 c -0.078,0.055 -0.155,0.087 -0.228,0.094 l -0.004,0 -0.004,0 C 0.064,-0.003 0.031,0 0,0"
             id="path3096"
             style="fill:#ffffff;fill-opacity:1;fill-rule:nonzero;stroke:none"
             inkscape:connector-curvature="0" /></g><g
           transform="translate(18.5596,53.3618)"
           id="g3098"><path
             d="m 0,0 c -0.708,0 -1.12,-0.021 -1.123,-0.021 -0.279,-0.017 -0.537,-0.169 -0.707,-0.42 -0.1,-0.15 -0.151,-0.335 -0.143,-0.52 0.05,-0.488 0.375,-2.255 2.485,-4.915 1.081,0.537 2.155,1.008 3.193,1.403 C 3.489,-3.146 3.361,-1.699 3.324,-0.166 2.034,-0.045 1.016,-0.01 0.383,-0.002 0.248,0 0.12,0 0,0"
             id="path3100"
             style="fill:#ffffff;fill-opacity:1;fill-rule:nonzero;stroke:none"
             inkscape:connector-curvature="0" /></g><g
           transform="translate(56.2109,53.3618)"
           id="g3102"><path
             d="m 0,0 c -0.119,0 -0.245,0 -0.38,-0.002 -0.634,-0.008 -1.65,-0.043 -2.94,-0.164 -0.036,-1.477 -0.165,-2.924 -0.383,-4.307 1.039,-0.395 2.114,-0.866 3.195,-1.403 2.114,2.667 2.437,4.436 2.486,4.918 0.015,0.165 -0.075,0.416 -0.145,0.516 C 1.664,-0.19 1.406,-0.038 1.126,-0.021 1.123,-0.021 0.705,0 0,0"
             id="path3104"
             style="fill:#ffffff;fill-opacity:1;fill-rule:nonzero;stroke:none"
             inkscape:connector-curvature="0" /></g><g
           transform="translate(52.3315,47.9033)"
           id="g3106"><path
             d="m 0,0 c -0.432,-2.175 -1.108,-4.078 -2.009,-5.654 -0.939,-1.651 -2.114,-2.903 -3.499,-3.73 10.039,0.545 12.872,3.775 13.169,4.149 l 0.002,0.002 c 0.098,0.151 0.15,0.318 0.15,0.497 0,0.288 -0.138,0.569 -0.357,0.732 0,0 -0.118,0.078 -0.329,0.222 L 7.125,-3.78 7.123,-3.778 c -0.16,0.12 -0.391,0.271 -0.681,0.463 -0.076,0.049 -0.158,0.103 -0.241,0.158 -0.719,0.461 -1.876,1.16 -3.293,1.87 C 1.93,-0.792 0.953,-0.361 0,0"
             id="path3108"
             style="fill:#ffffff;fill-opacity:1;fill-rule:nonzero;stroke:none"
             inkscape:connector-curvature="0" /></g><g
           transform="translate(22.4414,47.9033)"
           id="g3110"><path
             d="m 0,0 c -3.386,-1.283 -6.11,-3.066 -7.135,-3.781 -0.204,-0.146 -0.32,-0.224 -0.325,-0.227 -0.215,-0.159 -0.351,-0.44 -0.351,-0.728 0,-0.178 0.05,-0.344 0.149,-0.495 0.008,-0.009 0.014,-0.019 0.017,-0.026 0.022,-0.023 0.041,-0.047 0.067,-0.077 0.011,-0.015 0.025,-0.03 0.039,-0.048 0.069,-0.077 0.229,-0.243 0.481,-0.453 0.423,-0.362 1.183,-0.907 2.405,-1.457 2.528,-1.147 6.032,-1.869 10.162,-2.101 -1.368,0.824 -2.57,2.105 -3.499,3.74 C 1.108,-4.077 0.433,-2.175 0,0"
             id="path3112"
             style="fill:#ffffff;fill-opacity:1;fill-rule:nonzero;stroke:none"
             inkscape:connector-curvature="0" /></g><g
           transform="translate(51.0737,37.7856)"
           id="g3114"><path
             d="m 0,0 c -0.515,0 -1.275,-0.105 -2.426,-0.264 -0.171,-0.024 -0.35,-0.048 -0.536,-0.073 -0.505,-0.072 -1.119,-0.104 -1.934,-0.104 -0.499,0 -1.016,0.01 -1.564,0.023 l -0.048,0.001 c -0.521,0.013 -1.112,0.024 -1.702,0.024 -1.23,0 -2.821,-0.048 -4.223,-0.44 -0.07,-0.02 -0.121,-0.096 -0.114,-0.145 0.006,-0.044 0.093,-0.06 0.167,-0.06 0.021,0 0.042,0.001 0.066,0.001 0.554,0.051 1.092,0.076 1.6,0.076 1.828,0 3.077,-0.316 4.285,-0.621 1.137,-0.288 2.21,-0.558 3.702,-0.558 1.59,0 2.85,0.338 3.369,0.906 0.174,0.19 0.252,0.398 0.232,0.619 C 0.832,-0.191 0.695,0 0,0"
             id="path3116"
             style="fill:#ffffff;fill-opacity:1;fill-rule:nonzero;stroke:none"
             inkscape:connector-curvature="0" /></g><g
           transform="translate(23.6963,37.7856)"
           id="g3118"><path
             d="m 0,0 c -0.693,0 -0.828,-0.191 -0.87,-0.617 -0.022,-0.218 0.054,-0.425 0.225,-0.613 0.508,-0.562 1.803,-0.91 3.376,-0.91 1.491,0 2.566,0.27 3.702,0.558 1.208,0.306 2.456,0.621 4.287,0.621 0.506,0 1.044,-0.025 1.599,-0.076 0.023,0 0.046,-0.001 0.065,-0.001 0.074,0 0.16,0.016 0.166,0.06 0.009,0.049 -0.043,0.125 -0.115,0.145 -1.399,0.392 -2.991,0.44 -4.22,0.44 l -10e-4,0 c -0.59,0 -1.182,-0.011 -1.702,-0.024 L 6.462,-0.418 C 5.915,-0.431 5.398,-0.441 4.9,-0.441 4.085,-0.441 3.472,-0.409 2.966,-0.337 2.775,-0.312 2.592,-0.286 2.417,-0.263 1.27,-0.105 0.512,0 0,0"
             id="path3120"
             style="fill:#ffffff;fill-opacity:1;fill-rule:nonzero;stroke:none"
             inkscape:connector-curvature="0" /></g><g
           transform="translate(66.9233,13.5381)"
           id="g3122"><path
             d="m 0,0 c -0.247,0 -0.446,0.2 -0.446,0.447 l 0,45.533 c 0,0.248 0.199,0.447 0.446,0.447 0.247,0 0.446,-0.199 0.446,-0.447 l 0,-45.533 C 0.446,0.2 0.247,0 0,0"
             id="path3124"
             style="fill:#ffffff;fill-opacity:1;fill-rule:nonzero;stroke:none"
             inkscape:connector-curvature="0" /></g><g
           transform="translate(79.0996,57.0454)"
           id="g3126"><path
             d="m 0,0 -3.841,0 0,1.973 9.828,0 0,-1.973 -3.841,0 0,-10.14 L 0,-10.14 0,0 z"
             id="path3128"
             style="fill:#ffffff;fill-opacity:1;fill-rule:nonzero;stroke:none"
             inkscape:connector-curvature="0" /></g><g
           transform="translate(85.397,56.042)"
           id="g3130"><path
             d="m 0,0 2.094,0 0,-2.059 C 2.665,-0.692 3.72,0.242 5.33,0.173 l 0,-2.215 -0.122,0 c -1.833,0 -3.114,-1.194 -3.114,-3.616 l 0,-3.478 L 0,-9.136 0,0 z"
             id="path3132"
             style="fill:#ffffff;fill-opacity:1;fill-rule:nonzero;stroke:none"
             inkscape:connector-curvature="0" /></g><g
           transform="translate(97.3154,50.1934)"
           id="g3134"><path
             d="m 0,0 0,0.623 c -0.536,0.208 -1.246,0.363 -2.076,0.363 -1.35,0 -2.146,-0.57 -2.146,-1.522 l 0,-0.035 c 0,-0.883 0.779,-1.384 1.783,-1.384 C -1.055,-1.955 0,-1.159 0,0 m -6.264,-0.657 0,0.034 c 0,1.973 1.54,2.942 3.772,2.942 1.021,0 1.748,-0.156 2.457,-0.381 l 0,0.225 c 0,1.298 -0.796,1.99 -2.266,1.99 -1.021,0 -1.782,-0.225 -2.613,-0.571 l -0.554,1.644 c 1.004,0.45 1.99,0.744 3.444,0.744 1.367,0 2.388,-0.364 3.028,-1.021 C 1.679,4.292 1.99,3.322 1.99,2.128 l 0,-5.416 -2.042,0 0,1.142 c -0.623,-0.744 -1.574,-1.332 -2.976,-1.332 -1.713,0 -3.236,0.986 -3.236,2.821"
             id="path3136"
             style="fill:#ffffff;fill-opacity:1;fill-rule:nonzero;stroke:none"
             inkscape:connector-curvature="0" /></g><g
           transform="translate(108.2852,51.4565)"
           id="g3138"><path
             d="m 0,0 0,0.035 c 0,1.765 -1.246,2.924 -2.647,2.924 -1.436,0 -2.63,-1.107 -2.63,-2.924 l 0,-0.035 c 0,-1.765 1.211,-2.924 2.63,-2.924 C -1.246,-2.924 0,-1.748 0,0 m -7.389,0 0,0.035 c 0,3.028 2.059,4.741 4.24,4.741 1.505,0 2.457,-0.744 3.114,-1.609 l 0,4.914 2.094,0 0,-12.632 -2.094,0 0,1.523 c -0.674,-0.952 -1.626,-1.713 -3.114,-1.713 -2.146,0 -4.24,1.713 -4.24,4.741"
             id="path3140"
             style="fill:#ffffff;fill-opacity:1;fill-rule:nonzero;stroke:none"
             inkscape:connector-curvature="0" /></g><g
           transform="translate(118.7876,52.1143)"
           id="g3142"><path
             d="m 0,0 c -0.139,1.35 -0.935,2.405 -2.319,2.405 -1.28,0 -2.18,-0.986 -2.37,-2.405 L 0,0 z m -6.766,-0.675 0,0.034 c 0,2.614 1.851,4.759 4.464,4.759 2.907,0 4.378,-2.284 4.378,-4.914 0,-0.19 -0.017,-0.381 -0.034,-0.588 l -6.714,0 c 0.225,-1.489 1.28,-2.319 2.63,-2.319 1.021,0 1.748,0.381 2.475,1.09 l 1.228,-1.09 c -0.865,-1.038 -2.059,-1.713 -3.738,-1.713 -2.647,0 -4.689,1.92 -4.689,4.741"
             id="path3144"
             style="fill:#ffffff;fill-opacity:1;fill-rule:nonzero;stroke:none"
             inkscape:connector-curvature="0" /></g><g
           transform="translate(133.4937,56.5264)"
           id="g3146"><path
             d="m 0,0 0,0.035 c 0,1.072 -0.831,1.903 -1.921,1.903 -1.228,0 -2.094,-0.865 -2.094,-1.955 l 0,-0.035 c 0,-0.761 0.329,-1.349 1.402,-2.491 C -0.883,-1.99 0,-1.142 0,0 m 0.554,-7.112 -3.582,3.703 c -1.921,-0.657 -2.769,-1.782 -2.769,-2.959 l 0,-0.034 c 0,-1.471 1.177,-2.613 2.838,-2.613 1.35,0 2.509,0.727 3.513,1.903 M 1.125,-7.7 c -1.143,-1.332 -2.475,-2.093 -4.102,-2.093 -2.127,0 -3.72,1.384 -3.72,3.356 l 0,0.035 c 0,1.627 1.16,2.82 3.133,3.547 -0.918,1.021 -1.35,1.765 -1.35,2.769 l 0,0.034 c 0,1.557 1.263,2.751 3.028,2.751 1.574,0 2.785,-1.176 2.785,-2.63 l 0,-0.034 c 0,-1.506 -1.124,-2.492 -2.976,-3.132 l 3.184,-3.271 c 0.589,0.831 1.108,1.835 1.575,2.942 L 3.495,-3.755 C 2.941,-5 2.353,-6.091 1.696,-6.973 L 3.928,-9.274 3.218,-9.863 1.125,-7.7 z"
             id="path3148"
             style="fill:#ffffff;fill-opacity:1;fill-rule:nonzero;stroke:none"
             inkscape:connector-curvature="0" /></g><path
           d="m 76.244,42.677 2.128,0 0,-12.112 -2.128,0 0,12.112 z"
           id="path3150"
           style="fill:#ffffff;fill-opacity:1;fill-rule:nonzero;stroke:none"
           inkscape:connector-curvature="0" /><g
           transform="translate(80.9155,39.7007)"
           id="g3152"><path
             d="m 0,0 2.094,0 0,-1.401 c 0.588,0.847 1.436,1.591 2.855,1.591 2.059,0 3.253,-1.384 3.253,-3.495 l 0,-5.831 -2.094,0 0,5.191 c 0,1.419 -0.709,2.232 -1.955,2.232 -1.211,0 -2.059,-0.848 -2.059,-2.267 l 0,-5.156 L 0,-9.136 0,0 z"
             id="path3154"
             style="fill:#ffffff;fill-opacity:1;fill-rule:nonzero;stroke:none"
             inkscape:connector-curvature="0" /></g><g
           transform="translate(89.981,39.7007)"
           id="g3156"><path
             d="M 0,0 2.25,0 4.707,-6.714 7.181,0 9.379,0 5.641,-9.206 3.755,-9.206 0,0 z"
             id="path3158"
             style="fill:#ffffff;fill-opacity:1;fill-rule:nonzero;stroke:none"
             inkscape:connector-curvature="0" /></g><g
           transform="translate(106.4351,35.7729)"
           id="g3160"><path
             d="m 0,0 c -0.139,1.35 -0.935,2.405 -2.319,2.405 -1.28,0 -2.18,-0.986 -2.37,-2.405 L 0,0 z m -6.766,-0.675 0,0.035 c 0,2.613 1.851,4.758 4.464,4.758 2.907,0 4.378,-2.284 4.378,-4.914 0,-0.19 -0.017,-0.381 -0.034,-0.588 l -6.714,0 c 0.225,-1.489 1.28,-2.319 2.63,-2.319 1.021,0 1.748,0.381 2.475,1.09 l 1.228,-1.09 c -0.865,-1.039 -2.059,-1.714 -3.738,-1.714 -2.647,0 -4.689,1.921 -4.689,4.742"
             id="path3162"
             style="fill:#ffffff;fill-opacity:1;fill-rule:nonzero;stroke:none"
             inkscape:connector-curvature="0" /></g><g
           transform="translate(109.4272,31.7583)"
           id="g3164"><path
             d="M 0,0 0.935,1.419 C 1.938,0.675 2.994,0.294 3.928,0.294 c 0.9,0 1.419,0.381 1.419,0.987 l 0,0.034 C 5.347,2.024 4.378,2.267 3.305,2.596 1.956,2.976 0.45,3.53 0.45,5.278 l 0,0.034 c 0,1.73 1.436,2.786 3.253,2.786 C 4.845,8.098 6.091,7.7 7.06,7.06 L 6.229,5.572 C 5.347,6.108 4.413,6.437 3.651,6.437 c -0.813,0 -1.28,-0.381 -1.28,-0.9 l 0,-0.035 C 2.371,4.828 3.357,4.551 4.43,4.205 5.762,3.79 7.268,3.184 7.268,1.54 l 0,-0.035 C 7.268,-0.416 5.78,-1.367 3.876,-1.367 2.579,-1.367 1.142,-0.9 0,0"
             id="path3166"
             style="fill:#ffffff;fill-opacity:1;fill-rule:nonzero;stroke:none"
             inkscape:connector-curvature="0" /></g><g
           transform="translate(118.6494,33.0908)"
           id="g3168"><path
             d="m 0,0 0,4.811 -1.159,0 0,1.799 1.159,0 0,2.509 2.094,0 0,-2.509 2.457,0 0,-1.799 -2.457,0 0,-4.482 c 0,-0.813 0.415,-1.142 1.125,-1.142 0.467,0 0.882,0.104 1.297,0.311 l 0,-1.713 C 3.997,-2.509 3.426,-2.682 2.63,-2.682 1.09,-2.682 0,-2.007 0,0"
             id="path3170"
             style="fill:#ffffff;fill-opacity:1;fill-rule:nonzero;stroke:none"
             inkscape:connector-curvature="0" /></g><g
           transform="translate(124.8784,39.7007)"
           id="g3172"><path
             d="m 0,0 2.094,0 0,-1.384 c 0.588,0.813 1.384,1.574 2.786,1.574 1.315,0 2.249,-0.64 2.734,-1.609 0.726,0.969 1.696,1.609 3.08,1.609 1.99,0 3.201,-1.263 3.201,-3.495 l 0,-5.831 -2.094,0 0,5.191 c 0,1.453 -0.675,2.232 -1.851,2.232 -1.142,0 -1.956,-0.796 -1.956,-2.267 l 0,-5.156 -2.094,0 0,5.208 c 0,1.419 -0.692,2.215 -1.851,2.215 -1.159,0 -1.955,-0.865 -1.955,-2.267 l 0,-5.156 L 0,-9.136 0,0 z"
             id="path3174"
             style="fill:#ffffff;fill-opacity:1;fill-rule:nonzero;stroke:none"
             inkscape:connector-curvature="0" /></g><g
           transform="translate(147.1299,35.7729)"
           id="g3176"><path
             d="m 0,0 c -0.139,1.35 -0.935,2.405 -2.319,2.405 -1.28,0 -2.18,-0.986 -2.37,-2.405 L 0,0 z m -6.766,-0.675 0,0.035 c 0,2.613 1.851,4.758 4.464,4.758 2.907,0 4.378,-2.284 4.378,-4.914 0,-0.19 -0.017,-0.381 -0.034,-0.588 l -6.714,0 c 0.225,-1.489 1.28,-2.319 2.63,-2.319 1.021,0 1.748,0.381 2.475,1.09 l 1.228,-1.09 c -0.865,-1.039 -2.059,-1.714 -3.738,-1.714 -2.647,0 -4.689,1.921 -4.689,4.742"
             id="path3178"
             style="fill:#ffffff;fill-opacity:1;fill-rule:nonzero;stroke:none"
             inkscape:connector-curvature="0" /></g><g
           transform="translate(150.8657,39.7007)"
           id="g3180"><path
             d="m 0,0 2.094,0 0,-1.401 c 0.588,0.847 1.436,1.591 2.855,1.591 2.059,0 3.253,-1.384 3.253,-3.495 l 0,-5.831 -2.094,0 0,5.191 c 0,1.419 -0.709,2.232 -1.955,2.232 -1.211,0 -2.059,-0.848 -2.059,-2.267 l 0,-5.156 L 0,-9.136 0,0 z"
             id="path3182"
             style="fill:#ffffff;fill-opacity:1;fill-rule:nonzero;stroke:none"
             inkscape:connector-curvature="0" /></g><g
           transform="translate(161.5757,33.0908)"
           id="g3184"><path
             d="m 0,0 0,4.811 -1.159,0 0,1.799 1.159,0 0,2.509 2.094,0 0,-2.509 2.457,0 0,-1.799 -2.457,0 0,-4.482 c 0,-0.813 0.415,-1.142 1.125,-1.142 0.467,0 0.882,0.104 1.297,0.311 l 0,-1.713 C 3.997,-2.509 3.426,-2.682 2.63,-2.682 1.09,-2.682 0,-2.007 0,0"
             id="path3186"
             style="fill:#ffffff;fill-opacity:1;fill-rule:nonzero;stroke:none"
             inkscape:connector-curvature="0" /></g><g
           transform="translate(83.0039,18.1455)"
           id="g3188"><path
             d="M 0,0 -2.426,5.432 -4.868,0 0,0 z m -2.975,6.836 1.129,0 4.867,-10.758 -1.297,0 -1.251,2.823 -5.813,0 -1.267,-2.823 -1.236,0 4.868,10.758 z"
             id="path3190"
             style="fill:#ffffff;fill-opacity:1;fill-rule:nonzero;stroke:none"
             inkscape:connector-curvature="0" /></g><g
           transform="translate(87.5337,22.1123)"
           id="g3192"><path
             d="m 0,0 1.175,0 0,-2.06 c 0.579,1.313 1.724,2.258 3.22,2.198 l 0,-1.267 -0.092,0 c -1.724,0 -3.128,-1.236 -3.128,-3.616 l 0,-3.144 L 0,-7.889 0,0 z"
             id="path3194"
             style="fill:#ffffff;fill-opacity:1;fill-rule:nonzero;stroke:none"
             inkscape:connector-curvature="0" /></g><g
           transform="translate(93.7266,16.3145)"
           id="g3196"><path
             d="m 0,0 0,4.761 -1.099,0 0,1.037 1.099,0 0,2.381 1.175,0 0,-2.381 2.502,0 0,-1.037 -2.502,0 0,-4.609 c 0,-0.961 0.534,-1.312 1.327,-1.312 0.397,0 0.733,0.076 1.145,0.274 l 0,-1.007 C 3.235,-2.106 2.792,-2.229 2.228,-2.229 0.961,-2.229 0,-1.603 0,0"
             id="path3198"
             style="fill:#ffffff;fill-opacity:1;fill-rule:nonzero;stroke:none"
             inkscape:connector-curvature="0" /></g><g
           transform="translate(98.4253,15.2305)"
           id="g3200"><path
             d="m 0,0 0.595,0.84 c 0.854,-0.642 1.801,-1.008 2.731,-1.008 0.946,0 1.633,0.488 1.633,1.252 l 0,0.03 c 0,0.793 -0.931,1.099 -1.968,1.389 -1.236,0.351 -2.61,0.778 -2.61,2.227 l 0,0.031 c 0,1.358 1.13,2.259 2.686,2.259 0.961,0 2.029,-0.336 2.838,-0.871 L 5.371,5.265 C 4.639,5.737 3.799,6.027 3.036,6.027 2.105,6.027 1.511,5.539 1.511,4.883 l 0,-0.03 C 1.511,4.104 2.487,3.814 3.54,3.494 4.761,3.128 6.073,2.655 6.073,1.236 l 0,-0.03 C 6.073,-0.29 4.837,-1.159 3.265,-1.159 2.136,-1.159 0.885,-0.717 0,0"
             id="path3202"
             style="fill:#ffffff;fill-opacity:1;fill-rule:nonzero;stroke:none"
             inkscape:connector-curvature="0" /></g><g
           transform="translate(110.6597,24.9043)"
           id="g3204"><path
             d="m 0,0 1.129,0 6.729,-8.56 0,8.56 1.175,0 0,-10.681 -0.961,0 -6.897,8.759 0,-8.759 -1.175,0 L 0,0 z"
             id="path3206"
             style="fill:#ffffff;fill-opacity:1;fill-rule:nonzero;stroke:none"
             inkscape:connector-curvature="0" /></g><g
           transform="translate(121.6128,15.7803)"
           id="g3208"><path
             d="m 0,0 0.748,0.885 c 1.114,-1.007 2.182,-1.511 3.662,-1.511 1.434,0 2.38,0.763 2.38,1.816 l 0,0.031 C 6.79,2.212 6.256,2.776 4.013,3.25 1.557,3.784 0.427,4.577 0.427,6.332 l 0,0.03 c 0,1.679 1.48,2.915 3.51,2.915 1.556,0 2.67,-0.442 3.753,-1.312 L 6.989,7.034 C 5.997,7.843 5.005,8.193 3.906,8.193 2.518,8.193 1.633,7.431 1.633,6.47 l 0,-0.032 C 1.633,5.432 2.182,4.867 4.532,4.364 6.912,3.845 8.011,2.976 8.011,1.343 l 0,-0.031 C 8.011,-0.519 6.485,-1.709 4.364,-1.709 2.67,-1.709 1.282,-1.145 0,0"
             id="path3210"
             style="fill:#ffffff;fill-opacity:1;fill-rule:nonzero;stroke:none"
             inkscape:connector-curvature="0" /></g><g
           transform="translate(130.4741,24.9043)"
           id="g3212"><path
             d="m 0,0 1.313,0 3.051,-8.896 2.93,8.927 0.992,0 2.929,-8.927 3.052,8.896 1.267,0 -3.815,-10.757 -1.023,0 -2.929,8.667 -2.945,-8.667 -1.007,0 L 0,0 z"
             id="path3214"
             style="fill:#ffffff;fill-opacity:1;fill-rule:nonzero;stroke:none"
             inkscape:connector-curvature="0" /></g></g></g></g></svg>